<svg width="16" height="16" viewBox="0 0 16 16" fill="none" xmlns="http://www.w3.org/2000/svg">
<g clip-path="url(#clip0_704_78)">
<path d="M8.5 0V4H7.5V0H8.5Z" fill="#152217"/>
<path d="M11 8C11 9.65685 9.65685 11 8 11C6.34315 11 5 9.65685 5 8C5 6.34315 6.34315 5 8 5C9.65685 5 11 6.34315 11 8Z" fill="#152217"/>
<path d="M11.1822 5.5251L14.0106 2.69667L13.3035 1.98957L10.4751 4.81799L11.1822 5.5251Z" fill="#152217"/>
<path d="M16 8.5H12V7.5H16V8.5Z" fill="#152217"/>
<path d="M10.475 11.182L13.3034 14.0104L14.0106 13.3033L11.1821 10.4749L10.475 11.182Z" fill="#152217"/>
<path d="M7.5 16V12H8.5V16H7.5Z" fill="#152217"/>
<path d="M4.8178 10.4749L1.98937 13.3033L2.69648 14.0104L5.5249 11.182L4.8178 10.4749Z" fill="#152217"/>
<path d="M0 7.5L4 7.5V8.5H0V7.5Z" fill="#152217"/>
<path d="M5.52498 4.81804L2.69655 1.98961L1.98944 2.69672L4.81787 5.52515L5.52498 4.81804Z" fill="#152217"/>
</g>
<defs>
<clipPath id="clip0_704_78">
<rect width="16" height="16" fill="white"/>
</clipPath>
</defs>
</svg>
