<svg width="16" height="16" viewBox="0 0 16 16" fill="none" xmlns="http://www.w3.org/2000/svg">
<g clip-path="url(#clip0_704_90)">
<path fill-rule="evenodd" clip-rule="evenodd" d="M6 0H10V1L6 1V0ZM11 8C11 9.65685 9.65685 11 8 11C6.34315 11 5 9.65685 5 8C5 6.34315 6.34315 5 8 5C9.65685 5 11 6.34315 11 8ZM3.75725 0.928941L0.928822 3.75737L1.63593 4.46447L4.46436 1.63605L3.75725 0.928941ZM16 10H15V6H16V10ZM15.0709 3.75737L12.2424 0.928944L11.5353 1.63605L14.3638 4.46448L15.0709 3.75737ZM6 16V15L10 15V16H6ZM12.2428 15.0711L15.0712 12.2426L14.3641 11.5355L11.5356 14.364L12.2428 15.0711ZM0 10V6H1L0.999999 10H0ZM0.929124 12.2426L3.75755 15.0711L4.46466 14.364L1.63623 11.5355L0.929124 12.2426Z" fill="#E8E9E8"/>
</g>
<defs>
<clipPath id="clip0_704_90">
<rect width="16" height="16" fill="white"/>
</clipPath>
</defs>
</svg>
